<svg width="122" height="30" viewBox="0 0 122 30" fill="none" xmlns="http://www.w3.org/2000/svg">
<path d="M15 0C6.72 0 0 6.72 0 15C0 23.28 6.72 30 15 30C23.28 30 30 23.28 30 15C30 6.72 23.28 0 15 0ZM21.96 10.2C21.735 12.57 20.76 18.33 20.265 20.985C20.055 22.11 19.635 22.485 19.245 22.53C18.375 22.605 17.715 21.96 16.875 21.405C15.555 20.535 14.805 19.995 13.53 19.155C12.045 18.18 13.005 17.64 13.86 16.77C14.085 16.545 17.925 13.05 18 12.735C18.0104 12.6873 18.009 12.6378 17.996 12.5907C17.9829 12.5437 17.9585 12.5005 17.925 12.465C17.835 12.39 17.715 12.42 17.61 12.435C17.475 12.465 15.375 13.86 11.28 16.62C10.68 17.025 10.14 17.235 9.66 17.22C9.12 17.205 8.1 16.92 7.335 16.665C6.39 16.365 5.655 16.2 5.715 15.675C5.745 15.405 6.12 15.135 6.825 14.85C11.205 12.945 14.115 11.685 15.57 11.085C19.74 9.345 20.595 9.045 21.165 9.045C21.285 9.045 21.57 9.075 21.75 9.225C21.9 9.345 21.945 9.51 21.96 9.63C21.945 9.72 21.975 9.99 21.96 10.2Z" fill="#3C4867"/>
<path d="M76 14.5363C76 6.51228 69.28 0 61 0C52.72 0 46 6.51228 46 14.5363C46 21.5719 51.16 27.4301 58 28.782V18.8972H55V14.5363H58V10.9023C58 8.09674 60.355 5.81454 63.25 5.81454H67V10.1754H64C63.175 10.1754 62.5 10.8296 62.5 11.6291V14.5363H67V18.8972H62.5V29C70.075 28.2732 76 22.0807 76 14.5363Z" fill="#3C4867"/>
<mask id="mask0_12_167" style="mask-type:alpha" maskUnits="userSpaceOnUse" x="92" y="0" width="30" height="30">
<circle cx="106.615" cy="14.6154" r="14.6154" fill="#D9D9D9"/>
</mask>
<g mask="url(#mask0_12_167)">
<path d="M106.615 -4.61548C95.9944 -4.61548 87.3846 3.9943 87.3846 14.6153C87.3846 25.2363 95.9944 33.8461 106.615 33.8461C117.236 33.8461 125.846 25.2363 125.846 14.6153C125.846 3.9943 117.236 -4.61548 106.615 -4.61548ZM114.438 11.1377C114.446 11.302 114.448 11.4663 114.448 11.6265C114.448 16.6345 110.64 22.4058 103.673 22.4058C101.614 22.4092 99.5981 21.8179 97.8674 20.703C98.1619 20.7391 98.4643 20.7531 98.7708 20.7531C100.546 20.7531 102.178 20.1501 103.474 19.1325C102.685 19.117 101.919 18.8555 101.285 18.3844C100.651 17.9132 100.18 17.256 99.9367 16.5043C100.504 16.6122 101.088 16.5896 101.645 16.4382C100.788 16.2649 100.017 15.8003 99.4634 15.1234C98.9095 14.4465 98.6068 13.5989 98.6066 12.7243V12.6782C99.1174 12.9606 99.7023 13.1329 100.323 13.153C99.5196 12.618 98.9507 11.7961 98.7329 10.8555C98.515 9.91496 98.6648 8.92669 99.1514 8.09285C100.103 9.26273 101.289 10.2198 102.634 10.902C103.979 11.5842 105.452 11.9764 106.958 12.0532C106.766 11.2405 106.849 10.3873 107.192 9.62632C107.536 8.8653 108.121 8.23907 108.857 7.84499C109.593 7.4509 110.439 7.31105 111.263 7.44716C112.086 7.58328 112.842 7.98774 113.412 8.59766C114.26 8.42994 115.073 8.11901 115.816 7.67819C115.534 8.55586 114.942 9.30114 114.151 9.77555C114.902 9.68511 115.636 9.48323 116.327 9.17659C115.819 9.9376 115.179 10.6017 114.438 11.1377Z" fill="#3C4867"/>
</g>
</svg>
